PathFileType	4	(X/Y/Z)	 2.2Hz3min.trc
DataRate	CameraRate	NumFrames	NumMarkers	Units	OrigDataRate	OrigDataStartFrame	OrigNumFrames
200	200	8	43	m	200	626	1000
Frame#	Time	C7			LSH			RSH			MAN			RASI			LASI			HIPR			HIPL			RPSI			LPSI			COX			RTHI1			RTHI2			RTHI3			RTHI4			RLKN			RMKN			RSHA1			RSHA2			RSHA3			RSHA4			RLMAL			RMMAL			RHEEL			RMET5			RMET1			RTOE			LTHI1			LTHI2			LTHI3			LTHI4			LLKN			LMKN			LSHA1			LSHA2			LSHA3			LSHA4			LLMAL			LMMAL			LHEEL			LMET5			LMET1			LTOE			
		X1	Y1	Z1	X2	Y2	Z2	X3	Y3	Z3	X4	Y4	Z4	X5	Y5	Z5	X6	Y6	Z6	X7	Y7	Z7	X8	Y8	Z8	X9	Y9	Z9	X10	Y10	Z10	X11	Y11	Z11	X12	Y12	Z12	X13	Y13	Z13	X14	Y14	Z14	X15	Y15	Z15	X16	Y16	Z16	X17	Y17	Z17	X18	Y18	Z18	X19	Y19	Z19	X20	Y20	Z20	X21	Y21	Z21	X22	Y22	Z22	X23	Y23	Z23	X24	Y24	Z24	X25	Y25	Z25	X26	Y26	Z26	X27	Y27	Z27	X28	Y28	Z28	X29	Y29	Z29	X30	Y30	Z30	X31	Y31	Z31	X32	Y32	Z32	X33	Y33	Z33	X34	Y34	Z34	X35	Y35	Z35	X36	Y36	Z36	X37	Y37	Z37	X38	Y38	Z38	X39	Y39	Z39	X40	Y40	Z40	X41	Y41	Z41	X42	Y42	Z42	X43	Y43	Z43	
626	3.1300	-0.295391	1.569741	-0.581274	-0.250785	1.547545	-0.783179	-0.204682	1.523179	-0.379757	-0.158276	1.497128	-0.589795	-0.207771	1.038732	-0.471326	-0.204282	1.046255	-0.705324	-0.291051	1.098795	-0.425113	-0.286067	1.090770	-0.744715	-0.389461	1.083066	-0.539203	-0.380705	1.084410	-0.641530	-0.388156	1.082027	-0.589736	-0.279753	0.760411	-0.386178	-0.266795	0.701815	-0.383494	-0.203173	0.712257	-0.378096	-0.207848	0.773677	-0.380264	-0.239753	0.516536	-0.386447	-0.230506	0.502016	-0.517821	-0.342445	0.373548	-0.369666	-0.362960	0.336536	-0.374820	-0.306088	0.314019	-0.373535	-0.292931	0.351622	-0.372682	-0.416262	0.147541	-0.391536	-0.378627	0.144313	-0.479261	-0.474272	0.130832	-0.440596	-0.334193	0.040095	-0.366217	-0.284343	0.048116	-0.440293	-0.260997	0.035796	-0.429507	-0.266051	0.782141	-0.781382	-0.251718	0.722351	-0.783006	-0.187495	0.731494	-0.786125	-0.194264	0.791063	-0.785527	-0.224870	0.516029	-0.770938	-0.208232	0.506528	-0.644004	-0.320976	0.360621	-0.786338	-0.333571	0.317572	-0.780723	-0.282290	0.301759	-0.776157	-0.264095	0.338101	-0.780496	-0.371092	0.139998	-0.776111	-0.355983	0.138330	-0.683496	-0.442838	0.126278	-0.731956	-0.283134	0.045462	-0.786502	-0.255634	0.048752	-0.708921	-0.231780	0.034551	-0.711061	
627	3.1350	-0.295257	1.565736	-0.581372	-0.250747	1.543260	-0.783361	-0.204682	1.518952	-0.379795	-0.158219	1.492880	-0.589909	-0.208162	1.034798	-0.471319	-0.204725	1.042407	-0.705301	-0.291559	1.094904	-0.425194	-0.286550	1.086913	-0.744669	-0.389953	1.078797	-0.539175	-0.381238	1.080234	-0.641509	-0.388709	1.077811	-0.589722	-0.279542	0.756235	-0.386456	-0.266383	0.697684	-0.383706	-0.202808	0.708359	-0.378216	-0.207695	0.769764	-0.380442	-0.238838	0.512533	-0.386790	-0.229546	0.498197	-0.518093	-0.342530	0.370411	-0.370197	-0.363321	0.333463	-0.375338	-0.306598	0.310526	-0.373944	-0.293143	0.348003	-0.373116	-0.417655	0.144878	-0.392257	-0.380305	0.141685	-0.480057	-0.476014	0.127813	-0.441345	-0.335121	0.038794	-0.366035	-0.284959	0.047101	-0.440494	-0.261478	0.035086	-0.429975	-0.265957	0.778054	-0.781223	-0.251499	0.718292	-0.782802	-0.187313	0.727543	-0.785943	-0.194194	0.787108	-0.785407	-0.224003	0.512294	-0.770852	-0.207865	0.502768	-0.643883	-0.321119	0.357554	-0.786460	-0.333953	0.314570	-0.780840	-0.282770	0.298479	-0.776133	-0.264368	0.334723	-0.780475	-0.372649	0.137215	-0.776261	-0.357894	0.135756	-0.683538	-0.444526	0.123218	-0.732314	-0.284011	0.043451	-0.786525	-0.256851	0.047526	-0.708734	-0.232697	0.034054	-0.710720	
628	3.1400	-0.295144	1.561483	-0.581472	-0.250726	1.538770	-0.783558	-0.204721	1.514448	-0.379831	-0.158160	1.488408	-0.590018	-0.208532	1.030658	-0.471324	-0.205179	1.038365	-0.705288	-0.291998	1.090777	-0.425224	-0.287062	1.082803	-0.744663	-0.390468	1.074315	-0.539115	-0.381793	1.075844	-0.641477	-0.389285	1.073379	-0.589684	-0.279330	0.751838	-0.386758	-0.265959	0.693346	-0.383936	-0.202441	0.704264	-0.378286	-0.207553	0.765651	-0.380577	-0.237888	0.508301	-0.387117	-0.228525	0.494168	-0.518310	-0.342674	0.367099	-0.370733	-0.363775	0.330250	-0.375888	-0.307234	0.306872	-0.374364	-0.293433	0.344187	-0.373559	-0.419008	0.142156	-0.392969	-0.382158	0.139067	-0.480863	-0.477927	0.124664	-0.442115	-0.335955	0.037728	-0.365717	-0.285484	0.046459	-0.440489	-0.261861	0.034697	-0.430208	-0.265865	0.773743	-0.781075	-0.251268	0.714015	-0.782634	-0.187120	0.723400	-0.785803	-0.194132	0.782956	-0.785303	-0.223051	0.508354	-0.770790	-0.207339	0.498792	-0.643800	-0.321292	0.354375	-0.786645	-0.334393	0.311471	-0.781010	-0.283325	0.295069	-0.776120	-0.264690	0.331199	-0.780466	-0.374383	0.134372	-0.776429	-0.359978	0.133194	-0.683630	-0.446402	0.119936	-0.732679	-0.284798	0.041715	-0.786747	-0.257784	0.046669	-0.708743	-0.233344	0.033781	-0.710495	
629	3.1450	-0.295059	1.557051	-0.581573	-0.250743	1.534087	-0.783791	-0.204718	1.509715	-0.379877	-0.158098	1.483731	-0.590126	-0.208887	1.026317	-0.471337	-0.205644	1.034135	-0.705284	-0.292363	1.086423	-0.425195	-0.287609	1.078449	-0.744705	-0.391009	1.069641	-0.539025	-0.382369	1.071257	-0.641435	-0.389892	1.068761	-0.589639	-0.279108	0.747247	-0.387087	-0.265505	0.688819	-0.384192	-0.202057	0.699994	-0.378303	-0.207415	0.761363	-0.380662	-0.236874	0.503863	-0.387425	-0.227421	0.489954	-0.518468	-0.342859	0.363654	-0.371285	-0.364310	0.326936	-0.376479	-0.307985	0.303107	-0.374814	-0.293790	0.340218	-0.374016	-0.420259	0.139452	-0.393643	-0.384167	0.136510	-0.481673	-0.479968	0.121517	-0.442861	-0.336815	0.036838	-0.365323	-0.286025	0.046065	-0.440400	-0.262227	0.034520	-0.430300	-0.265766	0.769224	-0.780941	-0.251022	0.709533	-0.782498	-0.186905	0.719086	-0.785720	-0.194068	0.778625	-0.785235	-0.222028	0.504237	-0.770769	-0.206649	0.494630	-0.643771	-0.321456	0.351094	-0.786880	-0.334857	0.308295	-0.781234	-0.283928	0.291540	-0.776115	-0.265029	0.327545	-0.780470	-0.376272	0.131540	-0.776633	-0.362108	0.130661	-0.683789	-0.448415	0.116531	-0.733082	-0.285595	0.040260	-0.787301	-0.258509	0.046065	-0.709036	-0.233822	0.033583	-0.710470	
630	3.1500	-0.295018	1.552417	-0.581681	-0.250741	1.529240	-0.784027	-0.204688	1.504813	-0.379934	-0.158025	1.478873	-0.590229	-0.209239	1.021783	-0.471354	-0.206120	1.029736	-0.705283	-0.292677	1.081837	-0.425112	-0.288199	1.073856	-0.744802	-0.391583	1.064794	-0.538909	-0.382966	1.066500	-0.641387	-0.390521	1.063961	-0.589576	-0.278854	0.742488	-0.387437	-0.265007	0.684125	-0.384462	-0.201637	0.695574	-0.378277	-0.207262	0.756928	-0.380697	-0.235772	0.499260	-0.387702	-0.226204	0.485594	-0.518571	-0.343066	0.360130	-0.371864	-0.364908	0.323595	-0.377105	-0.308822	0.299266	-0.375276	-0.294191	0.336155	-0.374474	-0.421352	0.136776	-0.394318	-0.386311	0.134047	-0.482481	-0.482080	0.118455	-0.443541	-0.337698	0.036094	-0.364933	-0.286614	0.045831	-0.440259	-0.262640	0.034425	-0.430298	-0.265651	0.764526	-0.780817	-0.250740	0.704878	-0.782394	-0.186658	0.714622	-0.785712	-0.193992	0.774141	-0.785217	-0.220946	0.499965	-0.770776	-0.205785	0.490297	-0.643809	-0.321575	0.347739	-0.787167	-0.335309	0.305048	-0.781517	-0.284533	0.287915	-0.776142	-0.265345	0.323773	-0.780502	-0.378260	0.128766	-0.776890	-0.364281	0.128077	-0.683930	-0.450505	0.113113	-0.733552	-0.286438	0.039026	-0.788150	-0.259135	0.045633	-0.709538	-0.234241	0.033435	-0.710602	
631	3.1550	-0.294998	1.547579	-0.581817	-0.250773	1.524236	-0.784299	-0.204657	1.499750	-0.380004	-0.157937	1.473848	-0.590329	-0.209601	1.017060	-0.471366	-0.206611	1.025183	-0.705280	-0.292954	1.077028	-0.424973	-0.288839	1.069030	-0.744959	-0.392193	1.059781	-0.538773	-0.383587	1.061588	-0.641341	-0.391168	1.059013	-0.589487	-0.278560	0.737595	-0.387782	-0.264451	0.679304	-0.384725	-0.201170	0.691041	-0.378209	-0.207077	0.752383	-0.380691	-0.234565	0.494548	-0.387946	-0.224836	0.481124	-0.518632	-0.343245	0.356576	-0.372482	-0.365491	0.320278	-0.377750	-0.309673	0.295400	-0.375715	-0.294591	0.332068	-0.374923	-0.422381	0.134214	-0.395035	-0.388526	0.131681	-0.483276	-0.484178	0.115499	-0.444116	-0.338605	0.035392	-0.364570	-0.287257	0.045667	-0.440123	-0.263113	0.034339	-0.430309	-0.265504	0.759679	-0.780700	-0.250411	0.700077	-0.782316	-0.186366	0.710033	-0.785783	-0.193892	0.769527	-0.785262	-0.219809	0.495580	-0.770832	-0.204751	0.485833	-0.643917	-0.321619	0.344331	-0.787506	-0.335709	0.301749	-0.781864	-0.285098	0.284219	-0.776221	-0.265605	0.319917	-0.780578	-0.380279	0.126058	-0.777202	-0.366504	0.125491	-0.684134	-0.452611	0.109729	-0.734129	-0.287353	0.037808	-0.789152	-0.259722	0.045329	-0.710108	-0.234628	0.033317	-0.710821	
632	3.1600	-0.294932	1.542631	-0.581924	-0.250775	1.519099	-0.784574	-0.204629	1.494553	-0.380091	-0.157830	1.468680	-0.590425	-0.209990	1.012175	-0.471368	-0.207120	1.020496	-0.705271	-0.293205	1.071993	-0.424780	-0.289519	1.063994	-0.745167	-0.392844	1.054632	-0.538623	-0.384237	1.056539	-0.641298	-0.391836	1.053930	-0.589373	-0.278224	0.732599	-0.388086	-0.263832	0.674392	-0.384954	-0.200643	0.686440	-0.378118	-0.206845	0.747751	-0.380661	-0.233240	0.489787	-0.388170	-0.223304	0.476585	-0.518665	-0.343345	0.353060	-0.373112	-0.365985	0.317004	-0.378401	-0.310453	0.291561	-0.376118	-0.294922	0.328016	-0.375357	-0.423410	0.131855	-0.395763	-0.390715	0.129356	-0.484048	-0.486197	0.112610	-0.444622	-0.339525	0.034713	-0.364217	-0.287923	0.045509	-0.440066	-0.263578	0.034274	-0.430353	-0.265313	0.754714	-0.780597	-0.250024	0.695162	-0.782260	-0.186016	0.705354	-0.785930	-0.193751	0.764813	-0.785374	-0.218632	0.491124	-0.770943	-0.203566	0.481261	-0.644101	-0.321566	0.340885	-0.787906	-0.336024	0.298418	-0.782287	-0.285584	0.280488	-0.776377	-0.265780	0.316013	-0.780714	-0.382247	0.123400	-0.777573	-0.368749	0.122865	-0.684482	-0.454673	0.106395	-0.734846	-0.288311	0.036599	-0.790293	-0.260289	0.045101	-0.710674	-0.235001	0.033206	-0.711103	
633	3.1650	-0.294892	1.537612	-0.582056	-0.250759	1.513861	-0.784856	-0.204600	1.489267	-0.380198	-0.157691	1.463394	-0.590512	-0.210410	1.007147	-0.471356	-0.207648	1.015703	-0.705253	-0.293451	1.066757	-0.424540	-0.290238	1.058762	-0.745425	-0.393538	1.049364	-0.538466	-0.384921	1.051377	-0.641259	-0.392531	1.048735	-0.589242	-0.277831	0.727561	-0.388331	-0.263143	0.669428	-0.385124	-0.200047	0.681806	-0.378020	-0.206554	0.743084	-0.380627	-0.231785	0.485035	-0.388363	-0.221604	0.472022	-0.518692	-0.343306	0.349624	-0.373734	-0.366313	0.313801	-0.379010	-0.311079	0.287779	-0.376476	-0.295117	0.324042	-0.375769	-0.424454	0.129721	-0.396477	-0.392772	0.127016	-0.484799	-0.488086	0.109727	-0.445075	-0.340373	0.034090	-0.363861	-0.288528	0.045351	-0.440054	-0.263960	0.034214	-0.430441	-0.265070	0.749660	-0.780515	-0.249559	0.690162	-0.782231	-0.185598	0.700607	-0.786138	-0.193563	0.760031	-0.785537	-0.217422	0.486637	-0.771113	-0.202256	0.476619	-0.644384	-0.321403	0.337413	-0.788369	-0.336226	0.295070	-0.782796	-0.285959	0.276745	-0.776610	-0.265846	0.312101	-0.780919	-0.384089	0.120755	-0.777998	-0.370926	0.120194	-0.684846	-0.456641	0.103091	-0.735701	-0.289213	0.035418	-0.791494	-0.260835	0.044906	-0.711214	-0.235362	0.033103	-0.711403	
